<svg xmlns="http://www.w3.org/2000/svg" viewBox="0 0 594 528">
  <path
    d="M10 34C10 20.7 20.7 10 34 10L79.5 10c22 0 41.5 12.8 50.6 32l411 0c26.3 0 45.5 25 38.6 50.4l-41 152.3c-8.5 31.4-37 53.3-69.5 53.3l-288.5 0 5.4 28.5c2.2 11.3 12.1 19.5 23.6 19.5L498 346c13.3 0 24 10.7 24 24s-10.7 24-24 24l-288.3 0c-34.6 0-64.3-24.6-70.7-58.5L87.4 64.5c-.7-3.8-4-6.5-7.9-6.5L34 58C20.7 58 10 47.3 10 34z"
    fill="none" stroke="#EEEEEE" stroke-width="26" />
  <path
    d="M138 474a48 48 0 1 1 96 0 48 48 0 1 1 -96 0zm336-48a48 48 0 1 1 0 96 48 48 0 1 1 0-96z"
    fill="#EEEEEE" />
</svg>
